<svg width="903" height="18" viewBox="0 0 903 18" fill="none" xmlns="http://www.w3.org/2000/svg">
<path d="M0 9L15 17.6603V0.339746L0 9ZM7.525 10.5H12.5417V7.5H7.525V10.5ZM17.5583 10.5H22.575V7.5H17.5583V10.5ZM27.5917 10.5H32.6083V7.5H27.5917V10.5ZM37.625 10.5H42.6417V7.5H37.625V10.5ZM47.6583 10.5H52.675V7.5H47.6583V10.5ZM57.6917 10.5H62.7083V7.5H57.6917V10.5ZM67.725 10.5H72.7417V7.5H67.725V10.5ZM77.7583 10.5H82.775V7.5H77.7583V10.5ZM87.7917 10.5H92.8083V7.5H87.7917V10.5ZM97.825 10.5H102.842V7.5H97.825V10.5ZM107.858 10.5H112.875V7.5H107.858V10.5ZM117.892 10.5H122.908V7.5H117.892V10.5ZM127.925 10.5H132.942V7.5H127.925V10.5ZM137.958 10.5H142.975V7.5H137.958V10.5ZM147.992 10.5H153.008V7.5H147.992V10.5ZM158.025 10.5H163.042V7.5H158.025V10.5ZM168.058 10.5H173.075V7.5H168.058V10.5ZM178.092 10.5H183.108V7.5H178.092V10.5ZM188.125 10.5H193.142V7.5H188.125V10.5ZM198.158 10.5H203.175V7.5H198.158V10.5ZM208.192 10.5H213.208V7.5H208.192V10.5ZM218.225 10.5H223.242V7.5H218.225V10.5ZM228.258 10.5H233.275V7.5H228.258V10.5ZM238.292 10.5H243.308V7.5H238.292V10.5ZM248.325 10.5H253.342V7.5H248.325V10.5ZM258.358 10.5H263.375V7.5H258.358V10.5ZM268.392 10.5H273.408V7.5H268.392V10.5ZM278.425 10.5H283.442V7.5H278.425V10.5ZM288.458 10.5H293.475V7.5H288.458V10.5ZM298.492 10.5H303.508V7.5H298.492V10.5ZM308.525 10.5H313.542V7.5H308.525V10.5ZM318.558 10.5H323.575V7.5H318.558V10.5ZM328.592 10.5H333.608V7.5H328.592V10.5ZM338.625 10.5H343.642V7.5H338.625V10.5ZM348.658 10.5H353.675V7.5H348.658V10.5ZM358.692 10.5H363.708V7.5H358.692V10.5ZM368.725 10.5H373.742V7.5H368.725V10.5ZM378.758 10.5H383.775V7.5H378.758V10.5ZM388.792 10.5H393.808V7.5H388.792V10.5ZM398.825 10.5H403.841V7.5H398.825V10.5ZM408.858 10.5H413.875V7.5H408.858V10.5ZM418.891 10.5H423.908V7.5H418.891V10.5ZM428.925 10.5H433.941V7.5H428.925V10.5ZM438.958 10.5H443.975V7.5H438.958V10.5ZM448.991 10.5H454.008V7.5H448.991V10.5ZM459.025 10.5H464.041V7.5H459.025V10.5ZM469.058 10.5H474.075V7.5H469.058V10.5ZM479.091 10.5H484.108V7.5H479.091V10.5ZM489.125 10.5H494.141V7.5H489.125V10.5ZM499.158 10.5H504.175V7.5H499.158V10.5ZM509.191 10.5H514.208V7.5H509.191V10.5ZM519.225 10.5H524.241V7.5H519.225V10.5ZM529.258 10.5H534.275V7.5H529.258V10.5ZM539.291 10.5H544.308V7.5H539.291V10.5ZM549.325 10.5H554.341V7.5H549.325V10.5ZM559.358 10.5H564.375V7.5H559.358V10.5ZM569.391 10.5H574.408V7.5H569.391V10.5ZM579.425 10.5H584.441V7.5H579.425V10.5ZM589.458 10.5H594.475V7.5H589.458V10.5ZM599.491 10.5H604.508V7.5H599.491V10.5ZM609.525 10.5H614.541V7.5H609.525V10.5ZM619.558 10.5H624.575V7.5H619.558V10.5ZM629.591 10.5H634.608V7.5H629.591V10.5ZM639.625 10.5H644.641V7.5H639.625V10.5ZM649.658 10.5H654.675V7.5H649.658V10.5ZM659.691 10.5H664.708V7.5H659.691V10.5ZM669.725 10.5H674.741V7.5H669.725V10.5ZM679.758 10.5H684.775V7.5H679.758V10.5ZM689.791 10.5H694.808V7.5H689.791V10.5ZM699.825 10.5H704.841V7.5H699.825V10.5ZM709.858 10.5H714.875V7.5H709.858V10.5ZM719.891 10.5H724.908V7.5H719.891V10.5ZM729.925 10.5H734.941V7.5H729.925V10.5ZM739.958 10.5H744.975V7.5H739.958V10.5ZM749.991 10.5H755.008V7.5H749.991V10.5ZM760.025 10.5H765.041V7.5H760.025V10.5ZM770.058 10.5H775.075V7.5H770.058V10.5ZM780.091 10.5H785.108V7.5H780.091V10.5ZM790.125 10.5H795.141V7.5H790.125V10.5ZM800.158 10.5H805.174V7.5H800.158V10.5ZM810.191 10.5H815.208V7.5H810.191V10.5ZM820.224 10.5H825.241V7.5H820.224V10.5ZM830.258 10.5H835.274V7.5H830.258V10.5ZM840.291 10.5H845.308V7.5H840.291V10.5ZM850.324 10.5H855.341V7.5H850.324V10.5ZM860.358 10.5H865.374V7.5H860.358V10.5ZM870.391 10.5H875.408V7.5H870.391V10.5ZM880.424 10.5H885.441V7.5H880.424V10.5ZM890.458 10.5H895.474V7.5H890.458V10.5ZM900.491 10.5H903V7.5H900.491V10.5Z" fill="black"/>
</svg>
